<?xml version="1.0" encoding="UTF-8"?>
<!DOCTYPE svg PUBLIC "-//W3C//DTD SVG 1.1 Tiny//EN" "http://www.w3.org/Graphics/SVG/1.1/DTD/svg11-tiny.dtd">
<svg width="352" height="352" viewBox="0 0 352 352">
<path d="M82.136,289.623c-2.612,0-5.184-0.329-7.715-0.984v-4.279c2.772,0.754,5.231,1.131,7.378,1.131 c2.035,0,3.625-0.457,4.771-1.37s1.718-2.211,1.718-3.894c0-1.586-0.473-2.832-1.418-3.738c-0.945-0.904-2.7-2.086-5.263-3.545 c-2.804-1.569-4.695-3.151-5.672-4.746c-0.978-1.594-1.466-3.408-1.466-5.442c0-3.237,1.085-5.668,3.257-7.295 c2.171-1.626,5.003-2.438,8.496-2.438c2.532,0,4.863,0.24,6.994,0.722v4.183c-2.259-0.514-4.358-0.771-6.297-0.771 c-1.762,0-3.172,0.418-4.229,1.25c-1.058,0.834-1.586,1.988-1.586,3.462c0,1.426,0.46,2.567,1.382,3.425 c0.922,0.857,2.496,1.902,4.723,3.137c3.076,1.715,5.135,3.373,6.177,4.975c1.041,1.603,1.562,3.404,1.562,5.408 c0,3.604-1.069,6.309-3.208,8.11C89.601,288.723,86.398,289.623,82.136,289.623z"/>
<path d="M119.364,288.396c-2.692,0.816-5.488,1.227-8.388,1.227c-4.198,0-7.346-1.21-9.445-3.629 c-2.099-2.42-3.148-6.049-3.148-10.889c0-4.276,1.03-7.742,3.088-10.395c2.059-2.65,4.931-3.979,8.616-3.979 c3.396,0,5.98,1.127,7.75,3.377c1.77,2.252,2.656,6.414,2.656,12.486h-15.309c0,3.012,0.577,5.271,1.73,6.776 s2.884,2.259,5.191,2.259c1.923,0,4.342-0.408,7.258-1.227L119.364,288.396L119.364,288.396z M105.184,273.04h8.892 c0-3.302-0.353-5.576-1.057-6.826c-0.705-1.249-1.73-1.874-3.077-1.874c-1.506,0-2.651,0.674-3.437,2.02 C105.719,267.705,105.28,269.932,105.184,273.04z"/>
<path d="M125.805,289.238v-28.096h3.797l1.273,4.662c0.785-1.634,1.867-2.863,3.245-3.689c1.378-0.824,3.052-1.236,5.023-1.236 c0.513,0,0.889,0.016,1.129,0.049v5.383c-0.897-0.063-1.554-0.097-1.971-0.097c-2.163,0-3.701,0.478-4.614,1.431 s-1.37,2.527-1.37,4.724v16.87H125.805L125.805,289.238z"/>
<path d="M145.104,289.238v-24.273h-3.101v-3.82h9.589v28.094H145.104L145.104,289.238z M148.348,257.635 c-1.057,0-1.918-0.297-2.583-0.89s-0.997-1.378-0.997-2.354c0-0.978,0.332-1.764,0.997-2.355s1.526-0.889,2.583-0.889 c1.025,0,1.883,0.305,2.572,0.912c0.689,0.608,1.033,1.387,1.033,2.332c0,0.992-0.336,1.781-1.009,2.366 C150.271,257.342,149.405,257.635,148.348,257.635z"/>
<path d="M178.197,288.396c-2.692,0.816-5.488,1.227-8.388,1.227c-4.198,0-7.346-1.21-9.445-3.629 c-2.099-2.42-3.148-6.049-3.148-10.889c0-4.276,1.029-7.742,3.088-10.395c2.059-2.65,4.931-3.979,8.616-3.979 c3.396,0,5.98,1.127,7.75,3.377c1.771,2.252,2.656,6.414,2.656,12.486h-15.31c0,3.012,0.577,5.271,1.73,6.776 c1.153,1.506,2.884,2.259,5.191,2.259c1.923,0,4.342-0.408,7.258-1.227v3.992H178.197z M164.018,273.04h8.893 c0-3.302-0.353-5.576-1.058-6.826c-0.705-1.249-1.73-1.874-3.076-1.874c-1.506,0-2.652,0.674-3.437,2.02 C164.555,267.705,164.114,269.932,164.018,273.04z"/>
<path d="M190.693,289.623c-2.402,0-4.989-0.329-7.762-0.984v-4.184c2.739,0.834,4.998,1.25,6.776,1.25 c1.649,0,2.894-0.324,3.726-0.975c0.834-0.647,1.25-1.621,1.25-2.92c0-0.769-0.231-1.484-0.697-2.149 c-0.465-0.665-1.777-1.542-3.94-2.632c-1.458-0.754-2.624-1.446-3.497-2.079c-0.873-0.634-1.599-1.454-2.175-2.464 c-0.577-1.01-0.865-2.268-0.865-3.772c0-2.5,0.921-4.454,2.765-5.864c1.843-1.41,4.205-2.115,7.09-2.115 c2.498,0,4.773,0.313,6.824,0.938v3.989c-2.002-0.688-3.916-1.033-5.744-1.033c-1.488,0-2.604,0.305-3.34,0.913 s-1.104,1.522-1.104,2.739c0,0.642,0.22,1.242,0.66,1.804s1.702,1.354,3.784,2.379c2.916,1.427,4.768,2.82,5.553,4.183 c0.785,1.361,1.178,2.867,1.178,4.519c0,2.788-0.896,4.896-2.691,6.319C196.688,288.91,194.092,289.623,190.693,289.623z"/>
<path fill="#808080" d="M112.728,302.891h4.747c1.875,0,3.24,0.438,4.098,1.316c0.857,0.876,1.286,2.284,1.286,4.223 c0,1.899-0.515,3.357-1.544,4.375c-1.029,1.018-2.497,1.525-4.404,1.525h-1.598v6.479h-2.584L112.728,302.891L112.728,302.891z M115.312,304.607v7.979h1.454c1.169,0,2.031-0.312,2.583-0.931c0.553-0.622,0.829-1.674,0.829-3.155s-0.254-2.501-0.763-3.06 c-0.509-0.555-1.304-0.834-2.385-0.834H115.312L115.312,304.607z"/>
<rect x="135.898" y="301.786" fill="#808080" width="2.56" height="19.022"/>
<path fill="#808080" d="M159.537,318.788c-0.865,1.476-2.211,2.212-4.038,2.212c-1.273,0-2.265-0.359-2.974-1.074 c-0.709-0.72-1.063-1.722-1.063-3.012c0-1.33,0.365-2.322,1.094-2.975c0.729-0.653,1.602-1.063,2.62-1.226 c1.017-0.166,2.255-0.247,3.713-0.247v-1.646c0-1.625-0.869-2.438-2.607-2.438c-1.001,0-2.223,0.214-3.665,0.638v-1.791 c1.45-0.399,2.828-0.601,4.134-0.601c1.538,0,2.706,0.369,3.503,1.112c0.797,0.738,1.195,1.83,1.195,3.273v9.793h-1.394 L159.537,318.788z M158.888,313.994h-1.43c-1.146,0-2.005,0.242-2.578,0.727c-0.573,0.485-0.859,1.209-0.859,2.17 c0,0.785,0.174,1.371,0.523,1.762c0.348,0.387,0.871,0.582,1.568,0.582c0.881,0,1.564-0.28,2.049-0.842 c0.485-0.562,0.727-1.322,0.727-2.283V313.994z"/>
<path fill="#808080" d="M181.83,320.566c-1.074,0.289-2.083,0.434-3.028,0.434c-1.09,0-1.887-0.256-2.392-0.764 c-0.505-0.51-0.757-1.319-0.757-2.434v-9.302h-1.838v-0.961l3.737-3.81h0.661v3.101h3.4v1.67h-3.4v8.882 c0,0.76,0.124,1.262,0.372,1.508c0.248,0.244,0.625,0.365,1.13,0.365c0.521,0,1.227-0.115,2.115-0.349V320.566L181.83,320.566z"/>
<path fill="#808080" d="M198.402,301.594c0.81,0,1.595,0.096,2.354,0.287v1.742c-0.753-0.24-1.382-0.359-1.887-0.359 c-0.802,0-1.306,0.254-1.515,0.762c-0.209,0.511-0.313,1.445-0.313,2.808h2.561v1.67h-2.561v12.306h-2.561v-12.306h-1.693v-1.67 h1.693c0-2.123,0.324-3.526,0.975-4.211C196.107,301.936,197.089,301.594,198.402,301.594L198.402,301.594z"/>
<path fill="#808080" d="M216.611,321c-1.883,0-3.293-0.617-4.229-1.852c-0.938-1.233-1.405-3.084-1.405-5.551 c0-2.148,0.485-3.847,1.459-5.097c0.975-1.249,2.367-1.874,4.178-1.874c1.826,0,3.222,0.616,4.187,1.852 c0.966,1.232,1.449,2.955,1.449,5.166c0,2.275-0.451,4.069-1.353,5.385C219.994,320.344,218.566,321,216.611,321z M216.611,319.354c0.986,0,1.729-0.445,2.229-1.34c0.501-0.893,0.752-2.39,0.752-4.488c0-1.481-0.256-2.726-0.769-3.731 c-0.513-1.004-1.25-1.507-2.212-1.507c-0.978,0-1.719,0.451-2.223,1.357c-0.506,0.904-0.758,2.199-0.758,3.881 c0,1.892,0.252,3.334,0.758,4.332C214.895,318.854,215.635,319.354,216.611,319.354z"/>
<path fill="#808080" d="M236.909,306.832l0.589,2.331c0.777-1.644,2.131-2.464,4.063-2.464c0.256,0,0.444,0.013,0.564,0.035 v2.332c-0.201-0.016-0.501-0.023-0.9-0.023c-1.099,0-1.904,0.262-2.416,0.788c-0.514,0.522-0.77,1.343-0.77,2.456v8.521h-2.561 v-13.977H236.909z"/>
<path fill="#808080" d="M272.073,320.809h-2.56v-9.627c0-0.929-0.177-1.629-0.523-2.096c-0.35-0.471-0.871-0.704-1.568-0.704 c-0.896,0-1.588,0.353-2.072,1.058s-0.728,1.623-0.728,2.752v8.617h-2.56v-9.627c0-0.929-0.18-1.629-0.535-2.096 c-0.356-0.471-0.891-0.704-1.604-0.704c-0.881,0-1.563,0.356-2.043,1.069s-0.721,1.627-0.721,2.74v8.615h-2.56v-13.976h1.43 l0.517,2.065c0.856-1.514,2.163-2.271,3.918-2.271c0.929,0,1.699,0.177,2.313,0.528c0.611,0.353,1.063,0.881,1.353,1.586 c0.793-1.409,2.063-2.114,3.81-2.114c1.379,0,2.412,0.372,3.101,1.117s1.034,1.858,1.034,3.341L272.073,320.809L272.073,320.809z "/>
<path fill="#0F3AAC" d="M228.208,242.369c2.563,0,4.944,0.191,7.146,0.576v5.576c-1.942-0.428-4.047-0.642-6.313-0.642 c-3.354,0-5.977,1.181-7.867,3.541c-1.89,2.36-3.049,5.901-3.477,10.623c2.072-2.009,4.935-3.013,8.588-3.013 c4.102,0,7.221,1.303,9.357,3.908c2.135,2.606,3.203,6.334,3.203,11.185c0,5.362-1.309,9.544-3.926,12.546 c-2.615,3.001-6.393,4.502-11.327,4.502c-4.934,0-8.657-1.752-11.168-5.255c-2.51-3.504-3.765-9.313-3.765-17.433 c0-7.989,1.677-14.34,5.029-19.051C217.046,244.725,221.885,242.369,228.208,242.369L228.208,242.369z M223.594,285.854 c2.157,0,3.771-0.828,4.84-2.482c1.066-1.655,1.602-4.674,1.602-9.053c0-3.291-0.502-5.764-1.506-7.418 c-1.004-1.656-2.51-2.483-4.52-2.483c-2.093,0-3.689,0.79-4.789,2.371c-1.102,1.581-1.65,3.76-1.65,6.536 c0,3.332,0.225,5.849,0.673,7.547c0.448,1.699,1.116,2.953,2.003,3.766S222.248,285.854,223.594,285.854z"/>
<path fill="#0F3AAC" d="M260.316,242.369c4.935,0,8.662,1.752,11.184,5.255c2.521,3.504,3.781,9.688,3.781,18.554 c0,9.721-1.276,16.316-3.829,19.789c-2.554,3.471-6.318,5.206-11.296,5.206c-4.358,0-7.647-1.153-9.87-3.461 c-2.222-2.308-3.669-5.224-4.343-8.748c-0.672-3.524-1.008-7.786-1.008-12.786c0-8.693,1.291-14.836,3.877-18.425 C251.396,244.164,255.232,242.369,260.316,242.369z M260.092,285.854c2.18,0,3.776-1.223,4.791-3.668 c1.016-2.447,1.521-7.781,1.521-16.008c0-7.904-0.522-12.962-1.569-15.173s-2.628-3.315-4.743-3.315 c-1.922,0-3.338,0.77-4.244,2.308c-0.908,1.538-1.476,3.546-1.699,6.024c-0.225,2.478-0.336,5.863-0.336,10.156 c0,8.461,0.502,13.854,1.506,16.184C256.32,284.689,257.913,285.854,260.092,285.854z"/>
<polygon fill="#FFCC00" points="83.551,301.553 74.234,306.654 84.862,311.665 93.57,305.768 "/>
<polygon fill="#FF9900" points="74.234,306.654 75.357,318.456 85.331,323.65 84.862,311.665 "/>
<linearGradient id="_61" gradientUnits="userSpaceOnUse" x1="75.36" y1="317.66" x2="85.33" y2="317.66">
<stop stop-color="#FFCC66" offset="0"/>
<stop stop-color="#FF9900" offset="1"/>
</linearGradient>
<polygon fill="url(#_61)" points="75.357,318.456 85.331,323.65 84.862,311.665 "/>
<polygon fill="#F27C0E" points="93.57,305.768 84.862,311.665 85.331,323.65 93.57,317.564 "/>
<polygon fill="#ABDD99" points="176.811,84.505 148.321,102.182 181.396,117.244 208.896,97.272 "/>
<polygon fill="#46AB48" points="148.321,102.182 150.291,142.135 181.721,157.521 181.396,117.244 "/>
<polygon fill="#16923B" points="208.896,97.272 181.396,117.244 181.721,157.521 208.245,134.602 "/>
<polygon fill="#FF6699" points="145.842,103.821 115.717,121.831 150.423,140.17 179.566,119.212 "/>
<polygon fill="#FF0066" points="150.423,140.17 115.717,121.831 119.646,166.366 152.395,184.371 "/>
<polygon fill="#BE0151" points="179.566,119.212 150.423,140.17 152.395,184.371 179.896,159.818 "/>
<polygon fill="#F5F661" points="250.023,114.932 212.693,99.54 185.518,119.518 222.518,136.871 "/>
<polygon fill="#FFF500" points="185.518,119.518 185.846,160.119 222.193,178.786 222.518,136.871 "/>
<polygon fill="#FFCC00" points="222.518,136.871 222.193,178.786 248.391,154.223 250.023,114.932 "/>
<polygon fill="#BFE230" points="153.919,143.233 183.227,122.111 220.314,139.299 191.896,163.205 "/>
<polygon fill="#84C322" points="153.919,143.233 155.552,187.436 191.572,207.083 191.896,163.205 "/>
<polygon fill="#5DAA3B" points="191.896,163.205 191.572,207.083 219.734,181.211 220.314,139.299 "/>
<polygon fill="#99FF66" points="147.897,58.767 176.792,42.482 210.77,55.167 182.688,73.26 "/>
<polygon fill="#66CC33" points="147.897,58.767 148.881,99.045 182.277,114.76 182.688,73.26 "/>
<polygon fill="#669900" points="182.688,73.26 182.277,114.76 209.783,94.787 210.77,55.167 "/>
<polygon fill="#CC66FF" points="185.191,74.515 222.688,91.457 251.824,70.171 212.861,56.423 "/>
<polygon fill="#6F348E" points="222.927,91.133 221.895,133.763 249.195,111.758 251.742,70.171 "/>
<polygon fill="#9933CC" points="184.781,74.515 184.287,116.015 221.895,133.763 222.927,91.133 "/>
<polygon fill="#FFCC00" points="127.601,43.202 95.021,61.047 132.182,78.564 162.633,57.936 "/>
<polygon fill="#FF9900" points="95.021,61.047 98.945,102.306 133.82,120.476 132.182,78.564 "/>
<linearGradient id="_62" gradientUnits="userSpaceOnUse" x1="98.94" y1="99.52" x2="133.82" y2="99.52">
<stop stop-color="#FFCC66" offset="0"/>
<stop stop-color="#FF9900" offset="1"/>
</linearGradient>
<polygon fill="url(#_62)" points="98.945,102.306 133.82,120.476 132.182,78.564 "/>
<polygon fill="#F27C0E" points="162.633,57.936 132.182,78.564 133.82,120.476 162.633,99.189 "/>
<polygon fill="#0099FF" points="152.426,97.736 154.061,139.652 192.048,159.625 192.048,116.076 "/>
<polygon fill="#00CCFF" points="152.426,97.736 183.527,77.107 221.434,93.402 192.048,116.076 "/>
<polygon fill="#0066FF" points="192.048,116.076 192.048,159.625 220.443,136.396 221.434,93.402 "/>
</svg>