<svg width="352" height="352" viewBox="-176 -176 352 352" preserveAspectRatio="xMidYMid meet" xmlns:a="http://www.adobe.com/svg10-extensions" xmlns:xlink="http://www.w3.org/1999/xlink" xmlns="http://www.w3.org/2000/svg">
<defs>
<linearGradient id="shape5grad" gradientUnits="userSpaceOnUse" x1="3.66" y1="43.12" x2="331.27" y2="43.12">
<stop stop-color="#FFFFFF" offset="0.57"/>
<stop stop-color="#CC5490" offset="0.64"/>
<stop stop-color="#CC5490" offset="0.71"/>
<stop stop-color="#AACE36" offset="1"/>
</linearGradient>
<linearGradient id="shape10grad" gradientUnits="userSpaceOnUse" x1="70.8" y1="94.66" x2="248.76" y2="94.66">
<stop stop-color="#FFFFFF" offset="0.65" stop-opacity="0"/>
<stop stop-color="#CC5490" offset="0.68"/>
<stop stop-color="#AACE36" offset="1"/>
</linearGradient>
<linearGradient id="shape19grad" gradientUnits="userSpaceOnUse" x1="135" y1="18" x2="135" y2="-18">
<stop stop-color="#FFFFFF" offset="0" stop-opacity="0"/>
<stop stop-color="#FFFFFF" offset="1"/>
</linearGradient>
<polygon transform="matrix(-1 0.001 0 -1 0 159)" id="shape19" fill="url(#shape19grad)" points="-176,-17 176,-17 142,17.001 -142,17.001" />
</defs>
<g transform="translate(131.437,101.602) scale(0.101)">
<path transform="translate(-2870.007,-575.239) scale(9.982)" fill="url(#shape5grad)" d="M331.266,76.671C316.881,72.529,305.012,66.206,293.377,60.006C275.641,50.551,258.885,41.621,235.134,41.621L201.012,41.621L112.171,41.621L112.171,41.62L111.906,41.621L99.413,41.621L99.381,41.667L70.801,41.772C41.16,41.67,18.685,29.82,4.005,6.548L3.661,6.768C18.427,30.17,41.023,42.085,70.829,42.182L101.492,42.245L101.619,42.268L201.012,42.639L201.012,42.642L235.135,42.642C258.632,42.642,274.883,51.918,292.506,61.311C304.309,67.601,316.494,74.85,331.266,79.686L331.266,76.671z" />
<g transform="matrix(0.368 -0.633 0.634 0.368 -1118.91 -158.979)">
</g>
</g>
<g transform="translate(121.539,101.94) scale(0.101)">
<g transform="translate(-2780.187,-574.288) scale(9.952)">
<path transform="translate(0.001,0.001)" fill="url(#shape10grad)" d="M247.336,147.413L248.762,147.413C235.567,116.279,214.635,91.892,196.36,79.456C178.431,67.256,157.762,57.741,134.932,51.174C113.842,45.105,91.667,41.902,70.8,41.902L70.8,42.07C91.613,42.07,113.739,45.639,134.78,51.693C157.557,58.243,178.175,67.737,196.058,79.906C214.221,92.263,234.543,116.492,247.336,147.413z" />
</g>
<g transform="matrix(0.311 -0.194 0.195 0.311 -953.526 145.202)">
<polygon transform="translate(0,0)" fill="#E9C1D2" points="13.844,-8.01 13.844,-8.01 45.429,-62.608 31.57,-70.608 -0.008,-16.023 -31.528,-70.608 -45.388,-62.608 -13.866,-8.017 -76.918,-7.96 -76.918,8.039 -13.84,7.982 -45.379,62.659 -31.538,70.639 -0.014,15.988 -10.968,-2.967 2.872,-10.987 13.849,8.011 76.959,8.011 76.959,-8.01" />
</g>
</g>
<use xlink:href="#shape19" />
<use transform="matrix(0.001 -1 1 0.001 0 0)" xlink:href="#shape19" />
<use transform="matrix(0 1 -1 0 0 0.001)" xlink:href="#shape19" />
<use transform="matrix(-1 0 0.001 -1 0 0)" xlink:href="#shape19" />
</svg>